
<svg xmlns="http://www.w3.org/2000/svg" width="512" height="512" viewBox="0 0 64 64">
  <g fill="none" stroke="none" stroke-width="1">
    <!-- Book Shape -->
    <path d="M8,16 C16,12 24,12 32,16 C40,12 48,12 56,16 L56,48 C48,44 40,44 32,48 C24,44 16,44 8,48 Z" fill="#1976D2"/>

    <!-- Left Page Content -->
    <rect x="14" y="22" width="8" height="10" rx="1" fill="#43A047"/>

    <!-- Right Page Lines -->
    <rect x="42" y="22" width="8" height="2" rx="1" fill="#43A047"/>
    <rect x="42" y="26" width="8" height="2" rx="1" fill="#43A047"/>
    <rect x="42" y="30" width="6" height="2" rx="1" fill="#43A047"/>

    <!-- Central Divider -->
    <rect x="31" y="16" width="2" height="32" fill="#ffffff"/>

    <!-- Circuit Lines -->
    <path d="M32,16 L32,10" stroke="#43A047" stroke-width="2"/>
    <circle cx="32" cy="8" r="2" fill="#43A047"/>

    <path d="M32,16 L26,10" stroke="#43A047" stroke-width="2"/>
    <circle cx="24" cy="8" r="2" fill="#43A047"/>

    <path d="M32,16 L38,10" stroke="#43A047" stroke-width="2"/>
    <circle cx="40" cy="8" r="2" fill="#43A047"/>
  </g>
</svg>
