<?xml version="1.0" encoding="UTF-8"?>
<!DOCTYPE svg PUBLIC "-//W3C//DTD SVG 1.1//EN" "http://www.w3.org/Graphics/SVG/1.1/DTD/svg11.dtd">
<svg xmlns="http://www.w3.org/2000/svg" version="1.1" width="1024px" height="1024px" style="shape-rendering:geometricPrecision; text-rendering:geometricPrecision; image-rendering:optimizeQuality; fill-rule:evenodd; clip-rule:evenodd" xmlns:xlink="http://www.w3.org/1999/xlink">
<g><path style="opacity:1" fill="#fdfdfc" d="M -0.5,-0.5 C 340.833,-0.5 682.167,-0.5 1023.5,-0.5C 1023.5,340.833 1023.5,682.167 1023.5,1023.5C 682.167,1023.5 340.833,1023.5 -0.5,1023.5C -0.5,682.167 -0.5,340.833 -0.5,-0.5 Z"/></g>
<g><path style="opacity:1" fill="#35af4a" d="M 468.5,394.5 C 462.348,389.259 456.015,384.259 449.5,379.5C 449.667,366.496 449.5,353.496 449,340.5C 432.924,327.546 416.758,314.713 400.5,302C 397.296,299.131 394.463,295.965 392,292.5C 391.5,279.171 391.333,265.837 391.5,252.5C 378.604,248.432 370.437,239.766 367,226.5C 363.831,199.853 375.497,184.186 402,179.5C 419.982,181.644 431.648,191.311 437,208.5C 439.979,229.555 431.812,244.222 412.5,252.5C 411.334,263.819 411.168,275.152 412,286.5C 430.045,301.547 448.378,316.213 467,330.5C 467.667,331.833 468.333,333.167 469,334.5C 469.829,354.671 469.662,374.671 468.5,394.5 Z"/></g>
<g><path style="opacity:1" fill="#fbfcfb" d="M 397.5,200.5 C 411.854,200.35 418.354,207.35 417,221.5C 412.095,232.915 403.928,236.082 392.5,231C 383.605,222.289 383.271,213.289 391.5,204C 393.727,203.059 395.727,201.892 397.5,200.5 Z"/></g>
<g><path style="opacity:1" fill="#35af49" d="M 565.5,385.5 C 559.103,391.237 552.436,396.57 545.5,401.5C 545.038,382.432 545.538,363.432 547,344.5C 548.738,340.759 551.238,337.592 554.5,335C 568.62,324.548 582.453,313.715 596,302.5C 596.5,291.172 596.667,279.838 596.5,268.5C 582.22,264.046 573.72,254.379 571,239.5C 569.677,213.66 581.843,199.327 607.5,196.5C 626.931,197.636 639.098,207.636 644,226.5C 645.667,245.002 638.5,258.835 622.5,268C 620.564,268.813 618.564,269.313 616.5,269.5C 616.667,282.837 616.5,296.171 616,309.5C 614.939,312.562 613.106,315.062 610.5,317C 595.215,327.896 580.381,339.396 566,351.5C 565.5,362.828 565.333,374.162 565.5,385.5 Z"/></g>
<g><path style="opacity:1" fill="#fcfcfb" d="M 602.5,216.5 C 620.16,215.991 626.993,224.324 623,241.5C 618.053,249.717 610.886,252.55 601.5,250C 589.655,244.13 586.822,235.297 593,223.5C 595.529,220.115 598.696,217.782 602.5,216.5 Z"/></g>
<g><path style="opacity:1" fill="#36b04c" d="M 527.5,175.5 C 524.282,176.692 521.115,178.025 518,179.5C 517.168,262.668 517.334,345.668 518.5,428.5C 518.5,428.833 518.5,429.167 518.5,429.5C 516.205,432.297 513.705,434.964 511,437.5C 506.931,432.94 503.098,428.274 499.5,423.5C 499.833,342.164 499.5,260.831 498.5,179.5C 495.145,178.154 491.812,176.82 488.5,175.5C 477.428,168.695 472.094,158.695 472.5,145.5C 473.662,122.839 485.495,110.506 508,108.5C 519.616,108.474 529.283,112.808 537,121.5C 546.65,136.241 546.983,151.241 538,166.5C 534.902,170.107 531.402,173.107 527.5,175.5 Z"/></g>
<g><path style="opacity:1" fill="#fbfdfb" d="M 504.5,128.5 C 522.075,129.324 527.908,137.991 522,154.5C 515.69,161.811 508.19,163.311 499.5,159C 492.044,152.356 490.544,144.522 495,135.5C 497.825,132.524 500.992,130.191 504.5,128.5 Z"/></g>
<g><path style="opacity:1" fill="#008a03" d="M 488.5,175.5 C 491.812,176.82 495.145,178.154 498.5,179.5C 499.5,260.831 499.833,342.164 499.5,423.5C 499.167,423.5 498.833,423.5 498.5,423.5C 498.833,342.497 498.5,261.497 497.5,180.5C 493.985,179.58 490.985,177.913 488.5,175.5 Z"/></g>
<g><path style="opacity:1" fill="#028d06" d="M 527.5,175.5 C 525.11,177.784 522.276,179.45 519,180.5C 518.5,263.166 518.333,345.833 518.5,428.5C 517.334,345.668 517.168,262.668 518,179.5C 521.115,178.025 524.282,176.692 527.5,175.5 Z"/></g>
<g><path style="opacity:1" fill="#00104b" d="M 851.5,339.5 C 851.667,460.834 851.5,582.167 851,703.5C 849.189,707.655 846.023,709.655 841.5,709.5C 840.127,709.657 838.793,709.49 837.5,709C 843.174,709.581 847.341,707.414 850,702.5C 850.167,581.333 850.667,460.333 851.5,339.5 Z"/></g>
<g><path style="opacity:1" fill="#075886" d="M 851.5,339.5 C 850.667,460.333 850.167,581.333 850,702.5C 847.341,707.414 843.174,709.581 837.5,709C 838.793,709.49 840.127,709.657 841.5,709.5C 759.099,716.462 680.432,737.629 605.5,773C 591.329,779.245 578.329,787.245 566.5,797C 563.029,799.072 559.362,800.572 555.5,801.5C 550.188,802.395 544.855,803.229 539.5,804C 520.995,804.168 502.662,804.668 484.5,805.5C 472.572,805.136 461.906,801.302 452.5,794C 442.172,785.496 430.838,778.496 418.5,773C 342.419,737.312 262.419,715.978 178.5,709C 175.427,708.261 173.26,706.428 172,703.5C 171.004,581.086 171.337,458.753 173,336.5C 175.363,333.82 178.363,332.487 182,332.5C 195.211,334.674 208.378,337.007 221.5,339.5C 222.03,324.086 222.863,308.752 224,293.5C 225.853,291.408 228.186,290.408 231,290.5C 293.668,299.722 352.502,319.889 407.5,351C 422.048,359.768 436.048,369.268 449.5,379.5C 456.015,384.259 462.348,389.259 468.5,394.5C 478.473,404.139 488.473,413.806 498.5,423.5C 498.833,423.5 499.167,423.5 499.5,423.5C 503.098,428.274 506.931,432.94 511,437.5C 513.705,434.964 516.205,432.297 518.5,429.5C 527.521,420.146 536.521,410.813 545.5,401.5C 552.436,396.57 559.103,391.237 565.5,385.5C 614.357,346.405 669.357,318.905 730.5,303C 748.722,298.195 767.055,293.861 785.5,290C 792.898,288.122 798.065,290.622 801,297.5C 801.5,311.163 801.667,324.829 801.5,338.5C 814.862,336.428 828.195,334.095 841.5,331.5C 846.92,331.589 850.253,334.256 851.5,339.5 Z"/></g>
<g><path style="opacity:1" fill="#083b73" d="M 762.5,319.5 C 749.087,322.52 735.754,325.853 722.5,329.5C 729.352,326.655 737.019,324.155 745.5,322C 747.224,321.552 747.891,320.718 747.5,319.5C 752.63,319.568 757.63,319.568 762.5,319.5 Z"/></g>
<g><path style="opacity:1" fill="#fdfcfc" d="M 245.5,317.5 C 305.517,328.354 361.517,349.521 413.5,381C 443.372,402.188 470.872,426.355 496,453.5C 496.615,455.116 497.615,456.449 499,457.5C 499.667,556.167 499.667,654.833 499,753.5C 452.159,715.992 399.659,688.825 341.5,672C 309.913,663.383 277.913,656.883 245.5,652.5C 245.5,540.833 245.5,429.167 245.5,317.5 Z"/></g>
<g><path style="opacity:1" fill="#36b04b" d="M 290.5,592.5 C 289.512,536.529 289.179,480.529 289.5,424.5C 290.591,421.572 292.591,419.406 295.5,418C 299.572,417.342 303.572,417.675 307.5,419C 351.439,432.869 395.439,446.535 439.5,460C 448.453,461.961 454.619,467.128 458,475.5C 458.667,529.167 458.667,582.833 458,636.5C 456.413,639.756 453.913,641.923 450.5,643C 446.428,643.658 442.428,643.325 438.5,642C 391.037,628.401 343.704,614.401 296.5,600C 293.882,597.894 291.882,595.394 290.5,592.5 Z"/></g>
<g><path style="opacity:1" fill="#0ea829" d="M 289.5,424.5 C 289.179,480.529 289.512,536.529 290.5,592.5C 289.207,591.158 288.374,589.491 288,587.5C 287.333,533.833 287.333,480.167 288,426.5C 288.278,425.584 288.778,424.918 289.5,424.5 Z"/></g>
<g><path style="opacity:1" fill="#fcfcfc" d="M 529.5,748.5 C 527.495,750.334 525.328,752.001 523,753.5C 522.5,655.167 522.333,556.834 522.5,458.5C 576.411,395.869 643.077,352.869 722.5,329.5C 735.754,325.853 749.087,322.52 762.5,319.5C 767.395,318.121 772.395,317.121 777.5,316.5C 777.5,428.5 777.5,540.5 777.5,652.5C 694.363,661.092 618.03,688.259 548.5,734C 542.098,738.854 535.765,743.687 529.5,748.5 Z"/></g>
<g><path style="opacity:1" fill="#085887" d="M 726.5,497.5 C 731.28,496.641 734.78,498.308 737,502.5C 737.667,508.833 737.667,515.167 737,521.5C 736.215,523.286 735.049,524.786 733.5,526C 678.541,538.99 623.541,551.823 568.5,564.5C 565.227,563.95 562.727,562.283 561,559.5C 560.333,553.5 560.333,547.5 561,541.5C 562.563,538.272 565.063,536.105 568.5,535C 621.356,522.785 674.022,510.285 726.5,497.5 Z"/></g>
<g><path style="opacity:1" fill="#0a386f" d="M 584.5,460.5 C 580.693,461.942 576.527,463.942 572,466.5C 568.736,465.473 565.903,466.306 563.5,469C 564.833,470.84 564.666,471.34 563,470.5C 562.406,474.321 561.906,478.155 561.5,482C 560.8,487.343 562.967,490.509 568,491.5C 581.063,488.754 594.063,485.754 607,482.5C 608.07,482.528 608.903,482.861 609.5,483.5C 597.167,486.267 584.833,489.1 572.5,492C 562.582,494.082 558.582,490.082 560.5,480C 559.009,472.422 561.675,467.088 568.5,464C 573.779,462.513 579.112,461.347 584.5,460.5 Z"/></g>
<g><path style="opacity:1" fill="#085987" d="M 732.5,426.5 C 731.448,426.351 730.448,426.517 729.5,427C 731.676,427.163 733.509,427.996 735,429.5C 736.586,436.057 736.92,442.724 736,449.5C 735.167,451.667 733.667,453.167 731.5,454C 731.728,454.399 732.062,454.565 732.5,454.5C 691.629,464.278 650.629,473.944 609.5,483.5C 608.903,482.861 608.07,482.528 607,482.5C 594.063,485.754 581.063,488.754 568,491.5C 562.967,490.509 560.8,487.343 561.5,482C 561.906,478.155 562.406,474.321 563,470.5C 564.666,471.34 564.833,470.84 563.5,469C 565.903,466.306 568.736,465.473 572,466.5C 576.527,463.942 580.693,461.942 584.5,460.5C 632.902,448.234 681.568,436.567 730.5,425.5C 731.416,425.543 732.083,425.876 732.5,426.5 Z"/></g>
<g><path style="opacity:1" fill="#031e5a" d="M 732.5,426.5 C 734.371,426.859 735.871,427.859 737,429.5C 737.667,436.5 737.667,443.5 737,450.5C 736.252,452.751 734.752,454.084 732.5,454.5C 732.062,454.565 731.728,454.399 731.5,454C 733.667,453.167 735.167,451.667 736,449.5C 736.92,442.724 736.586,436.057 735,429.5C 733.509,427.996 731.676,427.163 729.5,427C 730.448,426.517 731.448,426.351 732.5,426.5 Z"/></g>
<g><path style="opacity:1" fill="#085786" d="M 667.5,581.5 C 670.187,581.336 672.854,581.503 675.5,582C 677.333,582.5 678.5,583.667 679,585.5C 679.667,592.167 679.667,598.833 679,605.5C 678.167,607.667 676.667,609.167 674.5,610C 639.023,618.244 603.523,626.411 568,634.5C 564.599,634.302 562.266,632.635 561,629.5C 560.333,623.167 560.333,616.833 561,610.5C 561.833,608.333 563.333,606.833 565.5,606C 599.704,598.114 633.704,589.948 667.5,581.5 Z"/></g>
<g><path style="opacity:1" fill="#004379" d="M 522.5,458.5 C 522.333,556.834 522.5,655.167 523,753.5C 525.328,752.001 527.495,750.334 529.5,748.5C 529.938,748.435 530.272,748.601 530.5,749C 528.268,751.735 525.601,753.902 522.5,755.5C 521.276,754.234 519.943,753.067 518.5,752C 520.33,654.711 521.163,557.211 521,459.5C 521.333,458.833 521.667,458.167 522,457.5C 522.399,457.728 522.565,458.062 522.5,458.5 Z"/></g>
<g><path style="opacity:1" fill="#012866" d="M 555.5,801.5 C 551.795,803.264 547.795,804.431 543.5,805C 523.836,805.5 504.169,805.667 484.5,805.5C 502.662,804.668 520.995,804.168 539.5,804C 544.855,803.229 550.188,802.395 555.5,801.5 Z"/></g>
</svg>
